<svg xmlns="http://www.w3.org/2000/svg" viewBox="0 0 130 145"><defs><style>.cls-1{fill:#227791;}.cls-2{fill:#20617b;}.cls-3{fill:#fcecdb;}.cls-4{fill:#e3c190;}</style></defs><title>crest-light</title><g id="Layer_2" data-name="Layer 2"><g id="OBJECTS"><path class="cls-1" d="M65,145V0S31.61,1.6,10.68,19.19c0,0,13.66,12.53,6.83,23.46A30.57,30.57,0,0,1,0,56a202.18,202.18,0,0,0,19.29,50.65C33.24,131.67,65,145,65,145Z"/><path class="cls-2" d="M65,145V0s33.39,1.6,54.32,19.19c0,0-13.66,12.53-6.83,23.46A30.57,30.57,0,0,0,130,56a202.18,202.18,0,0,1-19.29,50.65C96.76,131.67,65,145,65,145Z"/><path class="cls-3" d="M21,24.35c4.32,7.58,4.58,14.82.75,20.95A36.36,36.36,0,0,1,5.91,59.14a199.49,199.49,0,0,0,17.75,45c11,19.77,34.45,32,41.34,35.32V5c-2.78.18-28.55,2.18-47,14.89A37.36,37.36,0,0,1,21,24.35Z"/><path class="cls-4" d="M65,139.51c6.89-3.27,30.3-15.5,41.34-35.33a200,200,0,0,0,17.75-45A36.36,36.36,0,0,1,108.25,45.3c-5.66-9-1.41-18.91,3.69-25.44C93.5,7.18,67.76,5.19,65,5h0V139.5Z"/><path class="cls-1" d="M23.61,22.86c4.9,8.6,5.13,16.91.69,24A39.17,39.17,0,0,1,9.44,60.74a197.68,197.68,0,0,0,16.84,42c10,17.89,30.76,29.5,38.72,33.44V8c-3.42.23-25.59,2.15-42.72,12.68C22.76,21.42,23.2,22.14,23.61,22.86Z"/><path class="cls-2" d="M65,136.17c7.95-3.92,28.72-15.5,38.71-33.44a198,198,0,0,0,16.84-42A39,39,0,0,1,105.7,46.88c-4.8-7.69-4.06-17.11,2-26.22C90.53,10.16,68.41,8.25,65,8h0V136.17Z"/></g></g></svg>